<svg width="134" height="49" viewBox="0 0 134 49" fill="none" xmlns="http://www.w3.org/2000/svg">
<path fill-rule="evenodd" clip-rule="evenodd" d="M85.223 24.25C85.223 23.271 85.223 22.7816 85.2378 22.3677C85.6721 10.207 95.43 0.449102 107.591 0.0147797C108.005 0 108.494 0 109.473 0C110.452 0 110.941 0 111.355 0.0147797C123.516 0.449102 133.274 10.207 133.708 22.3677C133.723 22.7816 133.723 23.271 133.723 24.25C133.723 25.229 133.723 25.7184 133.708 26.1323C133.274 38.293 123.516 48.0509 111.355 48.4852C110.941 48.5 110.452 48.5 109.473 48.5C108.494 48.5 108.005 48.5 107.591 48.4852C95.43 48.0509 85.6721 38.293 85.2378 26.1323C85.223 25.7184 85.223 25.229 85.223 24.25ZM99.7491 35.2732H95.2153V21.2672H99.7491V35.2732ZM94.6699 15.9625C94.6699 15.2157 94.9426 14.5787 95.4881 14.0515C96.0335 13.5024 96.6925 13.2278 97.4652 13.2278C98.2379 13.2278 98.8969 13.4914 99.4423 14.0185C99.9878 14.5457 100.26 15.1937 100.26 15.9625C100.26 16.6874 99.9878 17.3134 99.4423 17.8406C98.8969 18.3677 98.2379 18.6313 97.4652 18.6313C96.6925 18.6313 96.0335 18.3677 95.4881 17.8406C94.9426 17.3134 94.6699 16.6874 94.6699 15.9625ZM113.84 31.2932H110.226V17.2078H113.873C115.887 17.2078 117.552 17.8193 118.866 19.0423C120.18 20.2446 120.837 21.9858 120.837 24.2661C120.837 26.5463 120.18 28.2875 118.866 29.4898C117.552 30.6921 115.876 31.2932 113.84 31.2932ZM105.693 35.2732H114.004C117.398 35.2732 120.169 34.2886 122.315 32.3193C124.461 30.3501 125.534 27.6656 125.534 24.2661C125.534 20.8457 124.461 18.151 122.315 16.1817C120.191 14.2124 117.431 13.2278 114.037 13.2278H105.693V35.2732Z" fill="#FAFAFA"/>
<path d="M11.4818 36.3223C8.25554 36.3223 5.53533 35.2468 3.3212 33.096C1.10706 30.9451 0 28.13 0 24.6506C0 21.1924 1.11761 18.3773 3.35283 16.2053C5.60913 14.0334 8.29772 12.9474 11.4186 12.9474C14.2864 12.9474 16.5849 13.6749 18.314 15.1299C20.0642 16.5849 21.1924 18.3351 21.6985 20.3805L17.5865 21.6774C17.2702 20.4122 16.606 19.3473 15.5938 18.4827C14.5816 17.5971 13.1899 17.1542 11.4186 17.1542C9.58402 17.1542 7.97087 17.8079 6.57913 19.1153C5.20848 20.4227 4.52315 22.2678 4.52315 24.6506C4.52315 26.928 5.19793 28.731 6.5475 30.0595C7.91815 31.3879 9.56293 32.0522 11.4818 32.0522C13.2321 32.0522 14.6238 31.5988 15.6571 30.6921C16.7114 29.7853 17.4178 28.7099 17.7763 27.4658L21.8566 28.6993C21.6247 29.6061 21.2451 30.4917 20.7179 31.3563C20.2118 32.2209 19.5476 33.0327 18.7252 33.7918C17.9028 34.551 16.859 35.1625 15.5938 35.6264C14.3497 36.0903 12.979 36.3223 11.4818 36.3223Z" fill="#FAFAFA"/>
<path d="M30.5498 19.1153C29.1581 20.4016 28.4622 22.2362 28.4622 24.619C28.4622 27.0018 29.1581 28.847 30.5498 30.1543C31.9415 31.4406 33.5758 32.0838 35.4525 32.0838C37.3503 32.0838 38.9951 31.4406 40.3869 30.1543C41.7786 28.847 42.4745 27.0018 42.4745 24.619C42.4745 22.2362 41.7786 20.4016 40.3869 19.1153C38.9951 17.8079 37.3503 17.1542 35.4525 17.1542C33.5758 17.1542 31.9415 17.8079 30.5498 19.1153ZM23.939 24.6506C23.939 21.1502 25.0672 18.3246 27.3235 16.1737C29.5798 14.0228 32.2895 12.9474 35.4525 12.9474C38.6367 12.9474 41.3569 14.0228 43.6132 16.1737C45.8695 18.3246 46.9976 21.1502 46.9976 24.6506C46.9976 28.13 45.8695 30.9451 43.6132 33.096C41.3569 35.2468 38.6367 36.3223 35.4525 36.3223C32.2895 36.3223 29.5798 35.2468 27.3235 33.096C25.0672 30.9451 23.939 28.13 23.939 24.6506Z" fill="#FAFAFA"/>
<path d="M55.2102 35.8478H50.7819V13.4218H55.2102V35.8478Z" fill="#FAFAFA"/>
<path d="M79.4631 35.8478H74.8767L64.6917 19.9377V35.8478H60.3266V13.4218H65.7671L75.0981 28.2565V13.4218H79.4631V35.8478Z" fill="#FAFAFA"/>
</svg>
