<svg width="33" height="29" viewBox="0 0 33 29" fill="none" xmlns="http://www.w3.org/2000/svg">
<rect y="3" width="33" height="26" fill="black"/>
<path d="M25.3498 10.2685C24.2107 7.91198 22.1952 5.97504 19.5479 4.99164C14.1067 2.97039 8.05726 5.74276 6.03601 11.1839C4.01477 16.625 6.78714 22.6745 12.2283 24.6958C13.8828 25.3103 15.5999 25.7093 17.7936 25.3094C19.2378 25.046 20.8886 24.4364 22.8639 23.314M8.94987 17.9053C8.1806 16.1624 8.06324 14.1298 8.77905 12.2029C10.2375 8.27667 14.6027 6.27618 18.5289 7.73467C22.4551 9.19315 24.4556 13.5583 22.9971 17.4845C22.4312 19.0078 21.4278 20.2412 20.1823 21.0952" stroke="#4D4D4D"/>
<path d="M25.6762 16.2947L25.2075 16.1206L25.6762 16.2947ZM15.9263 20.7629L15.7522 21.2316H15.7522L15.9263 20.7629ZM11.4581 11.013L11.9268 11.1871L11.4581 11.013ZM22.2269 3.80178L22.401 3.33308V3.33308L22.2269 3.80178ZM28.4192 17.3136L28.8879 17.4877L28.4192 17.3136ZM14.9074 23.5059L14.7332 23.9746L14.9074 23.5059ZM31.3666 20.9485L31.8645 20.9022L31.8029 20.2399L31.1838 20.4831L31.3666 20.9485ZM31.2352 22.6823L30.7592 22.5292L30.7554 22.5409L30.7522 22.5528L31.2352 22.6823ZM30.671 23.8852L30.2746 23.5802L30.2678 23.5894L30.671 23.8852ZM29.8674 24.6214L29.6176 24.1883L29.6049 24.1956L29.5926 24.2037L29.8674 24.6214ZM29.056 25.0522L28.8732 24.5869L29.056 25.0522ZM23.0519 23.1773L23.3954 22.8141L23.1619 22.5932L22.864 22.714L23.0519 23.1773ZM25.6265 21.4421L25.2774 21.0841L24.9107 21.4417L25.277 21.7997L25.6265 21.4421ZM26.569 22.2163L26.8355 21.793L26.8243 21.7863L26.569 22.2163ZM27.6025 22.7074L27.7716 22.2369L27.763 22.2338L27.7543 22.231L27.6025 22.7074ZM28.5892 22.9367L28.5445 23.4348L28.5563 23.4356L28.5892 22.9367ZM29.418 22.8354L29.6008 23.3008H29.6008L29.418 22.8354ZM30.42 21.3203L30.2372 20.855L29.9429 20.9705L29.9212 21.2859L30.42 21.3203ZM25.2075 16.1206C23.8451 19.7879 19.7678 21.6565 16.1004 20.2942L15.7522 21.2316C19.9373 22.7862 24.5902 20.6538 26.1449 16.4688L25.2075 16.1206ZM16.1004 20.2942C12.4331 18.9318 10.5645 14.8545 11.9268 11.1871L10.9894 10.8389C9.43477 15.024 11.5671 19.6769 15.7522 21.2316L16.1004 20.2942ZM22.0528 4.27049C27.2351 6.19557 29.8756 11.9572 27.9505 17.1395L28.8879 17.4877C31.0053 11.7877 28.101 5.45048 22.401 3.33308L22.0528 4.27049ZM11.9268 11.1871C12.4349 9.81936 13.3197 8.70291 14.4199 7.91011L13.8354 7.09878C12.5792 8.00392 11.5687 9.27946 10.9894 10.8389L11.9268 11.1871ZM24.8562 10.394C25.7433 12.1067 25.9316 14.1712 25.2075 16.1206L26.1449 16.4688C26.9713 14.2441 26.7555 11.8866 25.7442 9.93409L24.8562 10.394ZM11.5428 5.86423C12.8313 4.98577 14.671 4.28689 16.6018 3.96153C18.5349 3.63577 20.5012 3.69409 22.0528 4.27049L22.401 3.33308C20.632 2.67591 18.4753 2.63172 16.4356 2.97543C14.3937 3.31953 12.4109 4.06209 10.9794 5.03798L11.5428 5.86423ZM15.0815 23.0372C12.4205 22.0487 10.4301 20.0495 9.38304 17.635L8.46559 18.0329C9.61648 20.6869 11.8065 22.8874 14.7332 23.9746L15.0815 23.0372ZM27.9505 17.1395C27.4051 18.6077 26.5525 19.8708 25.4931 20.8841L26.1843 21.6068C27.3507 20.4911 28.2887 19.1008 28.8879 17.4877L27.9505 17.1395ZM22.7386 22.7531C20.4088 23.8211 17.6732 23.9999 15.0815 23.0372L14.7332 23.9746C17.5836 25.0334 20.5943 24.8362 23.1553 23.6621L22.7386 22.7531ZM30.8688 20.9947C30.9285 21.6373 30.8834 22.1428 30.7592 22.5292L31.7112 22.8353C31.8896 22.2805 31.9322 21.6301 31.8645 20.9022L30.8688 20.9947ZM30.7522 22.5528C30.6367 22.9837 30.4739 23.3214 30.2747 23.5803L31.0672 24.1901C31.3627 23.806 31.576 23.3418 31.7181 22.8117L30.7522 22.5528ZM30.2678 23.5894C30.0731 23.8548 29.8557 24.0509 29.6176 24.1883L30.1173 25.0545C30.4883 24.8404 30.8066 24.5457 31.0741 24.1809L30.2678 23.5894ZM29.5926 24.2037C29.3336 24.374 29.0939 24.5002 28.8732 24.5869L29.2388 25.5176C29.5359 25.4009 29.8372 25.2398 30.1422 25.0391L29.5926 24.2037ZM28.8732 24.5869C28.1225 24.8818 27.304 24.9275 26.3999 24.7041L26.16 25.6749C27.242 25.9423 28.2742 25.8965 29.2388 25.5176L28.8732 24.5869ZM26.3999 24.7041C25.525 24.4879 24.5237 23.881 23.3954 22.8141L22.7083 23.5406C23.8982 24.6658 25.0489 25.4003 26.16 25.6749L26.3999 24.7041ZM25.277 21.7997C25.5499 22.0664 25.9161 22.4101 26.3138 22.6462L26.8243 21.7863C26.5399 21.6175 26.2488 21.3511 25.9759 21.0845L25.277 21.7997ZM26.3027 22.6394C26.6808 22.8774 27.0636 23.0605 27.4508 23.1839L27.7543 22.231C27.4583 22.1368 27.152 21.9924 26.8354 21.7931L26.3027 22.6394ZM27.4335 23.178C27.8143 23.3148 28.1852 23.4024 28.5445 23.4347L28.6339 22.4387C28.3736 22.4153 28.0867 22.3501 27.7716 22.2369L27.4335 23.178ZM28.5563 23.4356C28.9319 23.4603 29.2865 23.4242 29.6008 23.3008L29.2352 22.37C29.0964 22.4245 28.8985 22.4559 28.6221 22.4377L28.5563 23.4356ZM29.6008 23.3008C29.9948 23.146 30.3178 22.8974 30.5467 22.5513C30.7727 22.2096 30.8879 21.8022 30.9188 21.3548L29.9212 21.2859C29.899 21.607 29.8207 21.8362 29.7127 21.9996C29.6076 22.1585 29.4561 22.2832 29.2352 22.37L29.6008 23.3008ZM30.6028 21.7857L31.5495 21.4138L31.1838 20.4831L30.2372 20.855L30.6028 21.7857ZM25.9755 21.8001L26.2807 21.5026L25.5826 20.7866L25.2774 21.0841L25.9755 21.8001ZM22.864 22.714L21.9031 23.1035L22.2789 24.0303L23.2397 23.6407L22.864 22.714Z" fill="#4D4D4D"/>
</svg>
