<svg width="20" height="20" viewBox="0 0 20 20" fill="none" xmlns="http://www.w3.org/2000/svg">
<path d="M15.7143 18.5714V20H10V18.5714H14.2857V17.1429H15.7143V18.5714ZM8.57143 17.1429V15.7143V14.2857H10V15.7143H11.4286V17.1429H10V18.5714H8.57143V17.1429ZM17.1429 15.7143H18.5714V17.1429H15.7143V15.7143V14.2857H12.8571V12.8571H17.1429V11.4286V10H18.5714V8.57143H20V10V11.4286H18.5714V12.8571V14.2857H17.1429V15.7143ZM8.57143 11.4286H4.28571V10H2.85714V8.57143H5.71429V10H10V11.4286V12.8571H8.57143V11.4286ZM15.7143 10V11.4286H14.2857V10H12.8571V8.57143H15.7143V10ZM14.2857 1.42857V5.71429H18.5714V1.42857H14.2857ZM20 0V7.14286H12.8571V0H20ZM15.7143 4.28571V2.85714H17.1429V4.28571H15.7143ZM15.7143 2.85714H17.1429V4.28571H15.7143V2.85714ZM1.42857 14.2857V18.5714H5.71429V14.2857H1.42857ZM7.14286 12.8571V20H0V12.8571H7.14286ZM2.85714 17.1429V15.7143H4.28571V17.1429H2.85714ZM2.85714 15.7143H4.28571V17.1429H2.85714V15.7143ZM8.57143 4.28571V0H11.4286V1.42857H10V2.85714H11.4286V7.14286H10V8.57143H8.57143V5.71429H10V4.28571H8.57143ZM0 10V8.57143H1.42857V10H0ZM10 10V8.57143H11.4286V10H10ZM1.42857 11.4286V10H2.85714V11.4286H1.42857ZM11.4286 12.8571V11.4286H12.8571V12.8571H11.4286ZM10 14.2857V12.8571H11.4286V14.2857H10ZM11.4286 15.7143V14.2857H12.8571V15.7143H11.4286ZM18.5714 15.7143V14.2857H20V15.7143H18.5714ZM12.8571 17.1429V15.7143H14.2857V17.1429H12.8571ZM18.5714 18.5714V17.1429H20V18.5714H18.5714ZM17.1429 20V18.5714H18.5714V20H17.1429ZM1.42857 1.42857V5.71429H5.71429V1.42857H1.42857ZM7.14286 0V7.14286H0V0H7.14286ZM2.85714 4.28571V2.85714H4.28571V4.28571H2.85714ZM2.85714 2.85714H4.28571V4.28571H2.85714V2.85714Z" fill="white"/>
</svg>
