<svg width="16" height="20" viewBox="0 0 16 20" fill="none" xmlns="http://www.w3.org/2000/svg">
<path d="M8.01948 6.22992C7.28948 6.22992 6.15948 5.39992 4.96948 5.42992C3.39948 5.44992 1.95948 6.33992 1.14948 7.74992C-0.480518 10.5799 0.729482 14.7599 2.31948 17.0599C3.09948 18.1799 4.01948 19.4399 5.23948 19.3999C6.40948 19.3499 6.84948 18.6399 8.26948 18.6399C9.67948 18.6399 10.0795 19.3999 11.3195 19.3699C12.5795 19.3499 13.3795 18.2299 14.1495 17.0999C15.0395 15.7999 15.4095 14.5399 15.4295 14.4699C15.3995 14.4599 12.9795 13.5299 12.9495 10.7299C12.9295 8.38992 14.8595 7.26992 14.9495 7.21992C13.8495 5.60992 12.1595 5.42992 11.5695 5.38992C10.0295 5.26992 8.73948 6.22992 8.01948 6.22992ZM10.6195 3.86992C11.2695 3.08992 11.6995 1.99992 11.5795 0.919922C10.6495 0.959922 9.52948 1.53992 8.85948 2.31992C8.25948 3.00992 7.73948 4.11992 7.87948 5.17992C8.90948 5.25992 9.96948 4.64992 10.6195 3.86992Z" fill="white"/>
</svg>
