<svg width="41" height="41" viewBox="0 0 41 41" fill="none" xmlns="http://www.w3.org/2000/svg">
<path d="M15.4539 14.6534C15.4539 13.71 14.7872 12.9332 13.5659 12.9332C13.5589 12.9332 13.5518 12.9338 13.5448 12.9344C13.5376 12.9351 13.5304 12.9357 13.5231 12.9357H1.4386C4.44467 5.35808 11.8472 0 20.5021 0C31.8228 0 41 9.16763 41 20.4764C41 21.6276 40.9037 22.7573 40.7206 23.8567H31.4329L32.4708 19.9775C32.7203 19.0349 32.9706 17.9811 32.9706 17.1483C32.9706 14.4593 31.3325 12.8221 28.6677 12.8221C26.4192 12.8221 24.6424 13.9318 23.338 15.5123C22.7543 13.8767 21.4221 12.8221 19.3958 12.8221C17.7302 12.8221 16.5088 13.71 15.4539 14.6534Z" fill="white"/>
<path d="M26.8356 25.3818C26.3793 27.0732 27.0642 28.0885 28.3897 28.155V28.1591H39.5614C36.5227 35.6867 29.144 41 20.5222 41C9.18835 41 0 31.8193 0 20.4954C0 19.3817 0.0901919 18.2891 0.261016 17.2235H10.5603L8.3812 25.3818C7.90862 27.1314 8.65884 28.1591 10.0766 28.1591C11.1884 28.1591 12.0778 27.3813 12.439 26.0209L14.1622 19.6346C14.6344 17.8568 15.6626 16.6637 17.3306 16.6637C18.6365 16.6637 19.3036 17.302 19.3036 18.4959C19.3036 18.8576 19.2204 19.4124 19.109 19.8285L17.6082 25.3818C17.1356 27.1314 17.8863 28.1591 19.3036 28.1591C20.4154 28.1591 21.3044 27.3813 21.666 26.0209L23.3892 19.6346C23.8614 17.8568 24.8901 16.6637 26.5576 16.6637C27.8635 16.6637 28.5306 17.302 28.5306 18.4959C28.5306 18.8576 28.4474 19.4124 28.336 19.8285L26.8356 25.3818Z" fill="white"/>
</svg>
